<mxfile host="app.diagrams.net" modified="2024-03-20T17:42:52.090Z" agent="Mozilla/5.0 (Windows NT 10.0; Win64; x64) AppleWebKit/537.36 (KHTML, like Gecko) Chrome/121.0.0.0 Safari/537.36 OPR/107.0.0.0 (Edition Yx GX)" etag="C7d_9rEVuGqs3O0u6pPR" version="24.0.1" type="github">
  <diagram name="Страница — 1" id="TLO8N1UFw7iY8zKMCG4j">
    <mxGraphModel dx="1393" dy="797" grid="1" gridSize="10" guides="1" tooltips="1" connect="1" arrows="1" fold="1" page="1" pageScale="1" pageWidth="827" pageHeight="1169" math="0" shadow="0">
      <root>
        <mxCell id="0" />
        <mxCell id="1" parent="0" />
        <mxCell id="L3G1-wgBO4uozu0xB-eU-29" value="" style="edgeStyle=orthogonalEdgeStyle;rounded=0;orthogonalLoop=1;jettySize=auto;html=1;" edge="1" parent="1" source="L3G1-wgBO4uozu0xB-eU-25" target="L3G1-wgBO4uozu0xB-eU-28">
          <mxGeometry relative="1" as="geometry" />
        </mxCell>
        <mxCell id="L3G1-wgBO4uozu0xB-eU-25" value="&amp;nbsp;вводиться значение&amp;nbsp;" style="rounded=0;whiteSpace=wrap;html=1;" vertex="1" parent="1">
          <mxGeometry x="240" y="110" width="160" height="80" as="geometry" />
        </mxCell>
        <mxCell id="L3G1-wgBO4uozu0xB-eU-35" style="edgeStyle=orthogonalEdgeStyle;rounded=0;orthogonalLoop=1;jettySize=auto;html=1;entryX=0.5;entryY=0;entryDx=0;entryDy=0;" edge="1" parent="1" source="L3G1-wgBO4uozu0xB-eU-28" target="L3G1-wgBO4uozu0xB-eU-30">
          <mxGeometry relative="1" as="geometry" />
        </mxCell>
        <mxCell id="L3G1-wgBO4uozu0xB-eU-28" value="Далее применяем фильтр&amp;nbsp;&lt;span style=&quot;background-color: initial;&quot;&gt;через search&amp;nbsp;&lt;/span&gt;&lt;div&gt;&lt;br&gt;&lt;div&gt;&lt;div&gt;search(1, 2, 3, 4, 5, 6, ff=lambda x: x % 2)&lt;br&gt;&lt;/div&gt;&lt;/div&gt;&lt;div&gt;search(&quot;Apple&quot;, &quot;banana&quot;, &quot;Cat&quot;, &quot;Nikita&quot;, &quot;andrey&quot;,&#39;пух&#39;, &#39;Пушидзе&#39;, ff=lambda x: x)&lt;br&gt;&lt;/div&gt;&lt;/div&gt;" style="whiteSpace=wrap;html=1;rounded=0;" vertex="1" parent="1">
          <mxGeometry x="77.5" y="230" width="485" height="150" as="geometry" />
        </mxCell>
        <mxCell id="L3G1-wgBO4uozu0xB-eU-36" style="edgeStyle=orthogonalEdgeStyle;rounded=0;orthogonalLoop=1;jettySize=auto;html=1;entryX=1;entryY=0.5;entryDx=0;entryDy=0;" edge="1" parent="1" source="L3G1-wgBO4uozu0xB-eU-30" target="L3G1-wgBO4uozu0xB-eU-32">
          <mxGeometry relative="1" as="geometry" />
        </mxCell>
        <mxCell id="L3G1-wgBO4uozu0xB-eU-37" style="edgeStyle=orthogonalEdgeStyle;rounded=0;orthogonalLoop=1;jettySize=auto;html=1;entryX=0;entryY=0.5;entryDx=0;entryDy=0;" edge="1" parent="1" source="L3G1-wgBO4uozu0xB-eU-30" target="L3G1-wgBO4uozu0xB-eU-31">
          <mxGeometry relative="1" as="geometry">
            <Array as="points">
              <mxPoint x="320" y="620" />
              <mxPoint x="431" y="620" />
            </Array>
          </mxGeometry>
        </mxCell>
        <mxCell id="L3G1-wgBO4uozu0xB-eU-30" value="Объявляем функцию&lt;div&gt;def search(*args, ff=lambda x: x[0].isupper() ):&amp;nbsp;&lt;/div&gt;" style="rounded=0;whiteSpace=wrap;html=1;" vertex="1" parent="1">
          <mxGeometry x="171.56" y="430" width="296.88" height="97.35" as="geometry" />
        </mxCell>
        <mxCell id="L3G1-wgBO4uozu0xB-eU-31" value="&lt;div&gt;Проверяем все ли введенные числа целые:&lt;/div&gt;&lt;div&gt;if all(isinstance(arg, int) for arg in args):&lt;/div&gt;" style="rounded=0;whiteSpace=wrap;html=1;" vertex="1" parent="1">
          <mxGeometry x="450" y="570" width="210" height="100" as="geometry" />
        </mxCell>
        <mxCell id="L3G1-wgBO4uozu0xB-eU-38" style="edgeStyle=orthogonalEdgeStyle;rounded=0;orthogonalLoop=1;jettySize=auto;html=1;entryX=0.5;entryY=0;entryDx=0;entryDy=0;" edge="1" parent="1" source="L3G1-wgBO4uozu0xB-eU-32" target="L3G1-wgBO4uozu0xB-eU-34">
          <mxGeometry relative="1" as="geometry" />
        </mxCell>
        <mxCell id="L3G1-wgBO4uozu0xB-eU-32" value="Если введенные данные слова&lt;div&gt;elif all(isinstance(arg, str) for arg in args):&lt;br&gt;&lt;/div&gt;" style="rounded=0;whiteSpace=wrap;html=1;" vertex="1" parent="1">
          <mxGeometry x="28.120000000000005" y="570" width="205" height="100" as="geometry" />
        </mxCell>
        <mxCell id="L3G1-wgBO4uozu0xB-eU-43" style="edgeStyle=orthogonalEdgeStyle;rounded=0;orthogonalLoop=1;jettySize=auto;html=1;exitX=0;exitY=0.5;exitDx=0;exitDy=0;entryX=0.5;entryY=0;entryDx=0;entryDy=0;" edge="1" parent="1" source="L3G1-wgBO4uozu0xB-eU-33" target="L3G1-wgBO4uozu0xB-eU-41">
          <mxGeometry relative="1" as="geometry" />
        </mxCell>
        <mxCell id="L3G1-wgBO4uozu0xB-eU-33" value="&lt;div&gt;Применяем фильтр к числам и добавляем в кортеж:&amp;nbsp;&lt;/div&gt;return tuple(filter(ff, args))" style="whiteSpace=wrap;html=1;rounded=0;" vertex="1" parent="1">
          <mxGeometry x="466.88" y="760" width="176.25" height="110" as="geometry" />
        </mxCell>
        <mxCell id="L3G1-wgBO4uozu0xB-eU-42" value="" style="edgeStyle=orthogonalEdgeStyle;rounded=0;orthogonalLoop=1;jettySize=auto;html=1;" edge="1" parent="1" source="L3G1-wgBO4uozu0xB-eU-34" target="L3G1-wgBO4uozu0xB-eU-41">
          <mxGeometry relative="1" as="geometry" />
        </mxCell>
        <mxCell id="L3G1-wgBO4uozu0xB-eU-34" value="Применяем фильтр к словам&lt;div&gt;и добавляем в кортеж&lt;/div&gt;&lt;div&gt;&lt;div&gt;filter_str=filter(ff,args)&lt;/div&gt;&lt;div&gt;return tuple(filter_str)&lt;/div&gt;&lt;/div&gt;" style="whiteSpace=wrap;html=1;rounded=0;" vertex="1" parent="1">
          <mxGeometry y="750" width="261.25" height="130" as="geometry" />
        </mxCell>
        <mxCell id="L3G1-wgBO4uozu0xB-eU-39" style="edgeStyle=orthogonalEdgeStyle;rounded=0;orthogonalLoop=1;jettySize=auto;html=1;entryX=0.5;entryY=0;entryDx=0;entryDy=0;" edge="1" parent="1" source="L3G1-wgBO4uozu0xB-eU-31" target="L3G1-wgBO4uozu0xB-eU-33">
          <mxGeometry relative="1" as="geometry">
            <mxPoint x="560" y="740" as="targetPoint" />
          </mxGeometry>
        </mxCell>
        <mxCell id="L3G1-wgBO4uozu0xB-eU-41" value="Вывод данных" style="whiteSpace=wrap;html=1;rounded=0;" vertex="1" parent="1">
          <mxGeometry x="300" y="960" width="120" height="60" as="geometry" />
        </mxCell>
      </root>
    </mxGraphModel>
  </diagram>
</mxfile>
